<svg width="473" height="343" viewBox="0 0 473 343" fill="none" xmlns="http://www.w3.org/2000/svg">
<path d="M117.27 201.189C127.182 194.217 164.059 181.659 181.259 176.251H200.577C212.042 179.13 237.801 186.05 249.113 190.695C260.426 195.341 281.049 222.848 289.33 235.622L280.32 253.098C257.39 276.015 275.865 296.248 288.095 303.732C269.751 303.732 261.852 296.764 260.196 293.28C262.031 303.809 263.508 329.668 264.018 341.281H129.111V320.175H77.6564C72.9145 267.623 104.881 209.903 117.27 201.189Z" fill="url(#paint0_linear)"/>
<ellipse cx="192.375" cy="192.832" rx="22.9705" ry="16.5804" fill="#335F7D"/>
<path d="M175.321 191.12C178.303 173.754 177.252 157.686 176.786 152.141C177.439 146.95 204.554 156.672 217.598 161.863C210.238 165.638 208.242 184.513 208.164 193.479C208.397 196.428 206.581 202.681 197.45 204.097C182.169 205.89 176.331 196.192 175.321 191.12Z" fill="url(#paint1_linear)"/>
<mask id="mask0" mask-type="alpha" maskUnits="userSpaceOnUse" x="173" y="152" width="43" height="55">
<path d="M173.321 193.391C176.303 176.025 175.252 159.957 174.786 154.412C175.439 149.221 202.554 158.943 215.598 164.134C208.238 167.909 206.242 186.784 206.164 195.75C206.397 198.699 204.581 204.952 195.45 206.368C180.169 208.161 174.331 198.463 173.321 193.391Z" fill="#BABABA"/>
</mask>
<g mask="url(#mask0)">
<path opacity="0.1" d="M211.085 175.879C192.722 172.977 179.107 156.624 174.595 148.81C185.076 146.62 208.643 143.554 219.061 148.81C229.48 154.066 218.085 169.046 211.085 175.879Z" fill="black"/>
</g>
<path d="M207.49 165.043C237.651 163.715 238.513 121.936 235.174 101.212C180.681 54.4275 158.801 91.1886 154.673 115.417C159.712 132.513 177.33 166.371 207.49 165.043Z" fill="url(#paint2_linear)"/>
<path d="M179.007 114.658L191.296 125.349L189.963 131.584L178.501 121.395L179.007 114.658Z" fill="#0C344F"/>
<path d="M166.511 124.272C177.002 133.275 177.682 147.332 176.711 153.236C173.311 152.313 163.816 146.336 153.034 129.807C135.841 94.2385 156.555 67.6362 169.061 58.7811C202.573 39.0415 247.376 69.6655 239.545 93.0947C231.713 116.524 194.255 111.112 180.353 102.134C183.267 110.989 180.596 119.722 178.896 122.981C172.339 107.484 153.398 113.019 166.511 124.272Z" fill="#070412"/>
<path opacity="0.5" d="M237.595 117.674C231.27 115.693 224.456 119.915 221.84 122.274C217.084 126.874 224.296 138.572 232.635 133.183C239.306 128.873 238.722 121.048 237.595 117.674Z" fill="#E6FCFF"/>
<path fill-rule="evenodd" clip-rule="evenodd" d="M219.16 120.885C228.31 112.324 236.987 113.788 240.182 115.59C242.031 120.548 240.182 135.039 229.978 136.324C221.814 137.351 219.016 130.958 218.638 127.633C217.086 126.364 216.056 127.458 215.734 128.164C216.002 137.405 208.668 143.656 200.798 142.206C194.501 141.047 191.76 134.673 191.177 131.632H189.875V126.225C198.074 118.093 209.402 120.086 214.041 122.099C215.26 121.128 217.962 120.885 219.16 120.885ZM237.115 118.254C230.789 116.273 225.009 119.667 222.393 122.025C217.637 126.626 223.884 137.896 232.613 133.183C237.839 130.361 238.241 121.628 237.115 118.254ZM201.345 124.284C204.799 123.145 211.843 122.383 212.382 128.446C213.057 136.023 206.25 141.614 200.302 138.632C195.995 136.474 194.231 132.048 194.231 129.253C194.231 127.017 198.973 125.009 201.345 124.284Z" fill="#082538"/>
<path opacity="0.5" d="M212.405 128.446C211.865 122.384 204.822 123.146 201.367 124.284C198.996 125.009 194.254 127.017 194.254 129.253C194.254 132.048 196.018 136.474 200.325 138.632C206.273 141.614 213.08 136.024 212.405 128.446Z" fill="#E6FCFF"/>
<path d="M77.6127 320.243C82.9186 344.194 114.427 344.243 129.518 341.273L245.842 324.25C247.342 325.569 250.933 329.048 253.301 332.408C255.668 335.768 257.839 333.406 258.628 331.805C262.037 335.546 264.547 333.766 265.376 332.408C268.312 336.152 270.782 334.845 271.65 333.724C275.723 336.793 276.751 334.126 276.756 332.408C271.2 320.491 261.233 308.547 256.943 304.064L227.94 306.754L133.7 297.021C115.821 284.315 70.9804 290.303 77.6127 320.243Z" fill="url(#paint3_linear)"/>
<path d="M302.997 284.004C297.742 301.192 290.498 304.195 287.533 303.548C256.325 282.395 269.726 260.719 280.328 252.526L307.961 194.895C303.961 191.726 299.503 181.812 299.96 175.56C300.326 170.558 303.694 170.391 305.332 170.932C305.79 165.749 309.485 165.914 311.276 166.645C312.831 160.995 317.334 162.206 319.392 163.519C319.666 155.738 324.992 156.803 327.621 158.309L332.236 170.932C334.121 171.197 338.494 171.811 340.903 172.143C343.913 172.559 347.745 173.113 345.829 177.41C344.296 180.848 336.524 192.612 332.829 198.064C325.074 219.549 308.252 266.816 302.997 284.004Z" fill="url(#paint4_linear)"/>
<path d="M303.619 259.208C304.097 258.047 305.228 257.29 306.483 257.29H408.489C410.694 257.29 412.192 259.527 411.353 261.565L379.334 339.363C378.856 340.524 377.725 341.281 376.47 341.281H274.463C272.259 341.281 270.76 339.044 271.599 337.006L303.619 259.208Z" fill="url(#paint5_linear)"/>
<path d="M133.736 296.993L136.465 275.234" stroke="#30235B" stroke-width="0.619401"/>
<path d="M260.113 293.408C259.704 290.854 259.008 284.681 259.499 280.422" stroke="#30235B" stroke-width="0.619401"/>
<path d="M259.372 285.185L257.024 280.366" stroke="#30235B" stroke-width="0.619401"/>
<path d="M258.541 331.606L250.919 321.861" stroke="#30235B" stroke-width="0.619401"/>
<path d="M265.288 332.088L253.392 316.45" stroke="#30235B" stroke-width="0.619401"/>
<path d="M271.541 333.521L256.755 311.942" stroke="#30235B" stroke-width="0.619401"/>
<path d="M305.328 171.026C305.736 173.172 307.065 178.245 309.122 181.37" stroke="#30235B" stroke-width="0.619401"/>
<path d="M319.417 163.564C320.04 165.779 321.662 170.773 323.165 173.035" stroke="#30235B" stroke-width="0.619401"/>
<path d="M311.194 166.782C311.927 169.192 313.749 174.492 315.166 176.406" stroke="#30235B" stroke-width="0.619401"/>
<path d="M332.178 170.924L334.445 177.645" stroke="#30235B" stroke-width="0.619401"/>
<ellipse rx="6.96315" ry="10.1809" transform="matrix(0.938876 0.344255 -0.336528 0.941673 345.207 301.285)" fill="white"/>
<path d="M159.577 140.982C154.826 139.972 145.4 133.659 146.251 119.155" stroke="#30235B" stroke-width="0.949425"/>
<path d="M226.52 63.1997C223.933 59.3102 217.821 53.5615 205.501 52.9719" stroke="#30235B" stroke-width="0.949425"/>
<path d="M280.29 252.475L288.773 234.857" stroke="#30235B" stroke-width="0.949425"/>
<path d="M209.406 304.742C206.586 314.382 208.231 325.272 209.406 329.512L217.246 328.386C215.612 315.753 216.565 307.945 217.246 305.62L209.406 304.742Z" fill="#0C1E50"/>
<rect width="14.831" height="3.89368" rx="1.94684" transform="matrix(0.994349 0.106162 -0.1035 0.994629 206.3 300.614)" fill="url(#paint6_linear)"/>
<rect opacity="0.5" x="272.491" y="1.0544" width="65.1335" height="51.0479" rx="2.54344" stroke="#F0F0F0" stroke-width="1.89885"/>
<path d="M314.602 24.7867C315.963 25.5829 315.963 27.5736 314.602 28.3699L297.556 38.3384C296.195 39.1346 294.493 38.1393 294.493 36.5468V16.6098C294.493 15.0172 296.195 14.0219 297.556 14.8182L314.602 24.7867Z" fill="#FF7979"/>
<rect opacity="0.5" x="285.504" y="7.57959" width="37.6612" height="35.1425" fill="white"/>
<rect opacity="0.5" x="0.949425" y="0.949425" width="88.207" height="69.273" rx="3.7977" stroke="#F0F0F0" stroke-width="1.89885"/>
<rect opacity="0.5" x="18.4776" y="7.20482" width="53.7316" height="52.3447" fill="white"/>
<rect opacity="0.5" x="48.6771" y="120.846" width="59.9792" height="46.9767" rx="3.7977" stroke="#E2E2E2" stroke-width="1.89885"/>
<rect opacity="0.5" x="373.423" y="60.124" width="97.9704" height="71.8881" rx="3.7977" stroke="#F7F7F7" stroke-width="1.89885"/>
<rect x="388.845" y="91.4319" width="16.7937" height="23.7984" rx="2.58027" fill="#FF7979"/>
<rect x="414.011" y="76.9056" width="16.7937" height="38.3246" rx="2.58027" fill="#9EFFAE"/>
<rect x="439.178" y="83.087" width="16.7937" height="32.1432" rx="2.58027" fill="#FFDEAD"/>
<rect opacity="0.5" x="378.411" y="71.1717" width="85.3438" height="52.3296" fill="white"/>
<defs>
<linearGradient id="paint0_linear" x1="194.221" y1="149.117" x2="182.971" y2="371.574" gradientUnits="userSpaceOnUse">
<stop stop-color="#81D1FF"/>
<stop offset="1" stop-color="#335F7D"/>
</linearGradient>
<linearGradient id="paint1_linear" x1="194.103" y1="88.8985" x2="192.091" y2="187.709" gradientUnits="userSpaceOnUse">
<stop stop-color="#D18742"/>
<stop offset="1" stop-color="#935924"/>
</linearGradient>
<linearGradient id="paint2_linear" x1="195.59" y1="78.6719" x2="195.59" y2="165.081" gradientUnits="userSpaceOnUse">
<stop stop-color="#C67F3E"/>
<stop offset="1" stop-color="#714721"/>
</linearGradient>
<linearGradient id="paint3_linear" x1="176.852" y1="258.474" x2="176.852" y2="333.605" gradientUnits="userSpaceOnUse">
<stop stop-color="#BE7952"/>
<stop offset="0.7" stop-color="#9D5A2A"/>
<stop offset="1" stop-color="#4F2600"/>
</linearGradient>
<linearGradient id="paint4_linear" x1="280.228" y1="148.205" x2="353.277" y2="232.606" gradientUnits="userSpaceOnUse">
<stop stop-color="#DD9552"/>
<stop offset="0.68125" stop-color="#A96329"/>
<stop offset="1" stop-color="#5B2904"/>
</linearGradient>
<linearGradient id="paint5_linear" x1="371.06" y1="194.254" x2="329.7" y2="363.635" gradientUnits="userSpaceOnUse">
<stop offset="0.0171777" stop-color="white"/>
<stop offset="1" stop-color="#D7D7D7"/>
</linearGradient>
<linearGradient id="paint6_linear" x1="7.13355" y1="-0.761399" x2="7.03246" y2="3.95727" gradientUnits="userSpaceOnUse">
<stop stop-color="#7F67CE"/>
<stop offset="1" stop-color="#30235B"/>
</linearGradient>
</defs>
</svg>
